<mxfile host="app.diagrams.net" modified="2023-10-28T15:29:44.867Z" agent="Mozilla/5.0 (Windows NT 10.0; Win64; x64) AppleWebKit/537.36 (KHTML, like Gecko) Chrome/118.0.0.0 Safari/537.36 Edg/118.0.2088.69" etag="AMB6uANfJrnQjBZMjwqf" version="22.0.8" type="device">
  <diagram name="Page-1" id="k8KH6ZU_ZVLD5zQ14IFu">
    <mxGraphModel dx="903" dy="503" grid="1" gridSize="10" guides="1" tooltips="1" connect="1" arrows="1" fold="1" page="1" pageScale="1" pageWidth="850" pageHeight="1100" math="0" shadow="0">
      <root>
        <mxCell id="0" />
        <mxCell id="1" parent="0" />
        <mxCell id="Xtnf5ydTFZkf34_EIFsx-1" value="" style="rounded=1;whiteSpace=wrap;html=1;" vertex="1" parent="1">
          <mxGeometry x="230" y="200" width="180" height="160" as="geometry" />
        </mxCell>
        <mxCell id="Xtnf5ydTFZkf34_EIFsx-5" value="" style="endArrow=none;html=1;rounded=0;exitX=0;exitY=0.25;exitDx=0;exitDy=0;entryX=1;entryY=0.25;entryDx=0;entryDy=0;" edge="1" parent="1">
          <mxGeometry width="50" height="50" relative="1" as="geometry">
            <mxPoint x="230" y="256" as="sourcePoint" />
            <mxPoint x="410" y="256" as="targetPoint" />
          </mxGeometry>
        </mxCell>
        <mxCell id="Xtnf5ydTFZkf34_EIFsx-6" value="" style="endArrow=none;html=1;rounded=0;exitX=0;exitY=0.25;exitDx=0;exitDy=0;" edge="1" parent="1">
          <mxGeometry width="50" height="50" relative="1" as="geometry">
            <mxPoint x="230" y="309" as="sourcePoint" />
            <mxPoint x="410" y="309" as="targetPoint" />
          </mxGeometry>
        </mxCell>
        <mxCell id="Xtnf5ydTFZkf34_EIFsx-7" value="User Interaction" style="text;html=1;strokeColor=none;fillColor=none;align=center;verticalAlign=middle;whiteSpace=wrap;rounded=0;fontSize=15;" vertex="1" parent="1">
          <mxGeometry x="255" y="213" width="130" height="30" as="geometry" />
        </mxCell>
        <mxCell id="Xtnf5ydTFZkf34_EIFsx-8" value="App component" style="text;html=1;strokeColor=none;fillColor=none;align=center;verticalAlign=middle;whiteSpace=wrap;rounded=0;fontSize=15;" vertex="1" parent="1">
          <mxGeometry x="255" y="268" width="130" height="30" as="geometry" />
        </mxCell>
        <mxCell id="Xtnf5ydTFZkf34_EIFsx-9" value="WEB UI &amp;amp; Interaction Logic" style="text;html=1;strokeColor=none;fillColor=none;align=center;verticalAlign=middle;whiteSpace=wrap;rounded=0;fontSize=15;" vertex="1" parent="1">
          <mxGeometry x="255" y="320" width="130" height="30" as="geometry" />
        </mxCell>
        <mxCell id="Xtnf5ydTFZkf34_EIFsx-10" value="" style="rounded=1;whiteSpace=wrap;html=1;" vertex="1" parent="1">
          <mxGeometry x="480" y="200" width="180" height="160" as="geometry" />
        </mxCell>
        <mxCell id="Xtnf5ydTFZkf34_EIFsx-11" value="" style="endArrow=none;html=1;rounded=0;exitX=0;exitY=0.25;exitDx=0;exitDy=0;entryX=1;entryY=0.25;entryDx=0;entryDy=0;" edge="1" parent="1">
          <mxGeometry width="50" height="50" relative="1" as="geometry">
            <mxPoint x="480" y="256" as="sourcePoint" />
            <mxPoint x="660" y="256" as="targetPoint" />
          </mxGeometry>
        </mxCell>
        <mxCell id="Xtnf5ydTFZkf34_EIFsx-12" value="" style="endArrow=none;html=1;rounded=0;exitX=0;exitY=0.25;exitDx=0;exitDy=0;" edge="1" parent="1">
          <mxGeometry width="50" height="50" relative="1" as="geometry">
            <mxPoint x="480" y="309" as="sourcePoint" />
            <mxPoint x="660" y="309" as="targetPoint" />
          </mxGeometry>
        </mxCell>
        <mxCell id="Xtnf5ydTFZkf34_EIFsx-13" value="Business logic" style="text;html=1;strokeColor=none;fillColor=none;align=center;verticalAlign=middle;whiteSpace=wrap;rounded=0;fontSize=15;" vertex="1" parent="1">
          <mxGeometry x="505" y="213" width="130" height="30" as="geometry" />
        </mxCell>
        <mxCell id="Xtnf5ydTFZkf34_EIFsx-14" value="Database" style="text;html=1;strokeColor=none;fillColor=none;align=center;verticalAlign=middle;whiteSpace=wrap;rounded=0;fontSize=15;" vertex="1" parent="1">
          <mxGeometry x="505" y="268" width="130" height="30" as="geometry" />
        </mxCell>
        <mxCell id="Xtnf5ydTFZkf34_EIFsx-15" value="Database manager" style="text;html=1;strokeColor=none;fillColor=none;align=center;verticalAlign=middle;whiteSpace=wrap;rounded=0;fontSize=15;" vertex="1" parent="1">
          <mxGeometry x="505" y="320" width="130" height="30" as="geometry" />
        </mxCell>
      </root>
    </mxGraphModel>
  </diagram>
</mxfile>
